<svg width="33" height="33" viewBox="0 0 33 33" fill="none" xmlns="http://www.w3.org/2000/svg">
<rect width="32.5" height="32.5" rx="4" fill="#F5506C"/>
<path d="M15.6233 22.0831L24.9283 12.7764C25.0831 12.6216 25.2058 12.4379 25.2896 12.2358C25.3733 12.0336 25.4164 11.8169 25.4164 11.5981C25.4164 11.3792 25.3733 11.1625 25.2896 10.9603C25.2058 10.7582 25.0831 10.5745 24.9283 10.4197C24.7736 10.265 24.5899 10.1422 24.3877 10.0585C24.1855 9.97474 23.9688 9.93164 23.75 9.93164C23.5312 9.93164 23.3145 9.97474 23.1123 10.0585C22.9101 10.1422 22.7264 10.265 22.5717 10.4197L14.4433 18.5481L9.92834 14.0331C9.61582 13.7205 9.19196 13.545 8.75 13.545C8.30804 13.545 7.88418 13.7205 7.57167 14.0331C7.25916 14.3456 7.08359 14.7694 7.08359 15.2114C7.08359 15.4302 7.12669 15.6469 7.21044 15.8491C7.29418 16.0513 7.41693 16.235 7.57167 16.3897L13.265 22.0831C13.5785 22.3944 14.0024 22.5691 14.4442 22.5691C14.886 22.5691 15.3099 22.3944 15.6233 22.0831Z" fill="white"/>
</svg>
